PathFileType	4	(X/Y/Z)	OpenSim_Sub01_EMGStiffKnee_Accel.trc
DataRate	CameraRate	NumFrames	NumMarkers	Units	OrigDataRate	OrigDataStartFrame	OrigNumFrames
100	100	37	8	m	100	3480	5567
Frame#	Time	torso_imu_offset_imu	pelvis_imu_offset_imu	tibia_r_imu_offset_imu	femur_r_imu_offset_imu	tibia_l_imu_offset_imu	femur_l_imu_offset_imu	toes_r_imu_offset_imu	toes_l_imu_offset_imu
				X1	Y1	Z1	X2	Y2	Z2	X3	Y3	Z3	X4	Y4	Z4	X5	Y5	Z5	X6	Y6	Z6	X7	Y7	Z7	X8		Y8	Z8	

3480	34.79000000	12.77500549	0.10276064	7.22154078	13.50421373	-0.88167824	5.06971804	15.94274400	-1.66898734	2.76893803	13.08911998	-2.41048862	0.12751883	10.06083283	-5.65036190	2.27276585	11.34371923	1.81980770	-0.56252020	5.24833939	-3.10268291	8.21124708	7.37556232	-1.59582290	12.76464159
3481	34.80000000	12.04614059	0.24891293	7.14155426	12.47608337	-0.21048714	4.82039348	15.68932071	-1.73457992	1.89733456	12.98819774	-2.36748234	0.64369472	6.95995654	-5.74397317	1.57755853	8.70525280	0.38034478	-0.33512409	6.31139510	-4.02971396	8.48919919	6.77937413	-0.16939364	12.74692833
3482	34.81000000	11.07504382	0.36573951	6.91810244	11.10174570	0.88204574	4.47473965	14.79899628	-1.60110496	0.72007414	12.22138980	-2.22146784	1.03021939	5.78146740	-4.54499655	0.91430356	7.68686460	-0.93242256	-0.36893667	7.99673196	-4.90370817	8.89141494	6.93880021	1.47659950	12.85935483
3483	34.82000000	9.87774494	0.47424114	6.54844837	9.67633529	1.98434026	4.20571639	13.46276309	-1.26284800	-0.39520008	10.92440098	-1.75161859	1.10665517	6.75026065	-3.93275939	-0.83155081	7.67447713	-1.88593706	-0.68825994	10.16420973	-5.59576213	9.10438572	6.84987650	2.30290230	12.54512772
3484	34.83000000	8.64474284	0.59348882	6.09039867	8.40766275	2.80596559	4.06330197	11.92114344	-0.62805930	-1.26039440	9.45180344	-0.86900931	0.95440834	8.93178077	-4.20777057	-3.14114620	8.10136462	-2.42478574	-1.29226516	12.48959145	-5.88386662	9.21046222	6.41942203	2.21604638	11.89138557
3485	34.84000000	7.70077199	0.74105195	5.64835228	7.43630476	3.14982779	4.00281393	10.45277206	0.46116129	-1.82563415	8.32656755	0.41370526	0.85636635	10.49946637	-4.45537669	-4.23882698	8.43742632	-2.62990985	-2.16069788	14.50684629	-5.47470152	9.59674622	6.25515425	1.85048933	11.48077041
3486	34.85000000	7.27973092	0.91327237	5.30901237	6.88545753	2.92193121	3.99142047	9.31636683	2.05858363	-2.04657147	7.96150737	2.02532236	0.98542254	10.32261202	-4.01535586	-3.11949038	8.38383203	-2.57010473	-3.16652647	15.64561788	-4.55369769	10.68174012	6.68527177	1.67121821	11.64777872
3487	34.86000000	7.33534581	1.04353048	5.10293920	6.83181145	2.32749436	4.03873845	8.70855114	3.90350641	-1.88471622	8.42924447	3.72843272	1.17223101	9.40637438	-3.07639081	-1.16373475	8.32615427	-2.26765285	-3.86692416	15.03639261	-4.73430756	12.95395724	7.15383151	1.58401249	11.95168795
3488	34.87000000	7.76676586	1.05778780	5.04750749	7.32489248	1.62139129	4.15963294	8.78122396	5.66690751	-1.31480997	9.71207037	5.24188557	1.19372179	9.07496754	-1.98285993	-0.09841137	8.73933273	-1.72915813	-3.79785649	11.85509500	-7.68697823	16.80395105	6.99148657	1.40525771	11.84648966
3489	34.88000000	8.43158165	0.94517495	5.11811245	8.13642015	0.97373711	4.33006692	9.18885331	6.86744261	-0.49337525	11.38178699	6.08982500	0.96973190	9.51795576	-1.06038224	-0.23148593	9.54215799	-0.85530052	-3.05158166	6.78513291	-11.98445580	20.96282645	6.27794140	1.16074567	11.35536958
3490	34.89000000	9.15540082	0.74345425	5.25783858	8.82437820	0.48936629	4.49606029	9.20319510	6.90681827	0.28317269	12.69437152	5.64682198	0.53016120	10.05160307	-0.61999850	-0.77881235	10.22539990	0.53461558	-2.14849854	1.67008500	-13.81612278	22.88515386	5.66933836	1.03740549	10.93955309
3491	34.90000000	9.77486902	0.49693604	5.41583557	9.10063479	0.22755977	4.60794816	8.36639551	5.59347932	0.77137731	13.12458339	3.69670857	-0.02224649	10.17602725	-0.79025824	-1.12609724	10.40671873	2.40460207	-1.49463662	-2.00531652	-10.97236142	21.20330570	5.59337224	1.14139384	10.90283804
3492	34.91000000	10.16187520	0.26567044	5.56174520	9.15065053	0.11722955	4.63117656	7.05329699	3.95340044	0.89583741	12.82141641	1.25083664	-0.37670981	10.00440397	-1.15856698	-1.24722701	10.11353558	4.06859227	-1.12346066	-3.91130144	-6.18297229	18.14697303	5.75486370	1.32654181	11.04775704
3493	34.92000000	10.20569461	0.10878065	5.66949824	9.23464510	0.06581545	4.53726950	5.78242762	3.16941468	0.62592187	12.05995418	-0.50651724	-0.21155919	9.75760750	-1.24219979	-1.22435802	9.46053026	4.76498557	-0.99807360	-3.98040044	-2.90562190	16.44199846	5.74908810	1.41027225	11.09962504
3494	34.93000000	9.95825533	0.02797774	5.72051230	9.42129884	0.02012526	4.34689163	4.91868938	3.40322038	0.13598003	11.13674053	-1.19944812	0.38227572	9.57202520	-1.00610549	-1.13253302	8.73445958	4.40036132	-1.05942807	-2.87483104	-1.82449523	16.28642230	5.53197382	1.36327222	11.01506310
3495	34.94000000	9.59666133	-0.01921085	5.70197876	9.63184613	-0.04270283	4.11852562	4.70858772	4.03059605	-0.24192440	10.36477267	-1.07435543	0.99632991	9.51896263	-0.75980374	-1.04130574	8.35440837	3.39564171	-1.23143003	-1.81815410	-1.48909029	15.93290280	5.33701908	1.27419430	10.92871584
3496	34.95000000	9.25537322	-0.05997198	5.61501141	9.78550521	-0.11179456	3.89749703	5.21662450	4.60849163	-0.27785845	9.96895097	-0.41799840	1.32592691	9.61021028	-0.75632049	-1.00290837	8.56077477	2.15381398	-1.44377479	-1.55603085	-0.85132056	14.28089277	5.32320394	1.21144317	10.93163261
3497	34.96000000	8.93257226	-0.07269508	5.50165210	9.80677379	-0.07834983	3.68714564	5.97554174	5.29226559	-0.05741759	9.91114520	0.41050385	1.39906047	9.68568868	-1.05447757	-1.01852311	9.05288890	0.98525927	-1.64466312	-1.37117465	-0.22201101	12.30044022	5.40686742	1.17424179	10.97171554
3498	34.97000000	8.60538168	-0.02913142	5.40928597	9.62721568	0.17266953	3.48344552	6.44668595	6.31679631	0.27786600	10.09920183	1.05671998	1.30719233	9.56821274	-1.66761319	-1.07645841	9.44518755	0.16742240	-1.78691634	-0.33837301	-0.13119703	11.26590471	5.46584680	1.14844811	10.97457404
3499	34.98000000	8.31283957	0.06329993	5.35202533	9.26951998	0.57873797	3.28830845	6.49418688	7.45136528	0.62236591	10.36027176	1.43654013	1.17114642	9.30011131	-2.46574561	-1.11362002	9.57867359	-0.25888917	-1.84129947	1.53164354	-0.62962951	11.27690889	5.47312639	1.11132628	10.92825764
3500	34.99000000	8.14161800	0.16972602	5.31837188	8.82653428	0.94067456	3.10821254	6.29225484	8.10697212	0.89812475	10.45944686	1.67392081	1.13431031	9.09264031	-3.20859729	-1.02738829	9.46880061	-0.43502021	-1.79241238	3.50782617	-1.39915937	11.52893451	5.47491951	1.03354476	10.86887677
3501	35	8.14210663	0.25882878	5.29999824	8.40626294	1.10025309	2.94380850	6.04590425	7.86523063	1.06599999	10.24056441	1.86156372	1.28825123	9.08813625	-3.69568595	-0.77326707	9.18812561	-0.49151599	-1.65415312	5.06944109	-2.18398407	11.42496133	5.49895244	0.91192184	10.82635166
3502	35.01000000	8.25324391	0.31195179	5.29995666	8.15638491	1.03138642	2.77808235	6.02798048	6.84210662	1.20006946	9.78619108	1.98339558	1.56883181	9.21123509	-3.85320828	-0.48249073	8.96554981	-0.51290893	-1.52641952	6.37574695	-2.94175590	11.05364143	5.51242129	0.82148218	10.80853510
3503	35.02000000	8.39616153	0.31488349	5.32303951	8.21766420	0.73730775	2.59389511	6.50163766	5.26541350	1.38756087	9.22219691	2.00608995	1.88495341	9.34945055	-3.64226214	-0.31018539	9.03893355	-0.56791049	-1.51718279	7.68976859	-3.66467554	10.61897392	5.47573936	0.84464258	10.81808079
3504	35.03000000	8.53387038	0.28489310	5.36859485	8.51764030	0.29441726	2.42110564	7.39737153	3.55829263	1.59924746	8.66197320	1.93907913	2.17284155	9.43708936	-3.19572266	-0.28282332	9.34767827	-0.61579415	-1.61730362	8.94603500	-4.27138336	10.15403224	5.41528150	0.95807676	10.84089596
3505	35.04000000	8.66161581	0.26347042	5.43177897	8.81976614	-0.16458074	2.32572867	8.38965536	2.29411515	1.71629148	8.20928438	1.82470209	2.38976266	9.44449793	-2.77863955	-0.32785109	9.60151290	-0.53162731	-1.72751785	9.82633560	-4.62393311	9.56038654	5.40816962	1.05708510	10.85000522
3506	35.05000000	8.76984276	0.27493775	5.50664376	8.95511313	-0.53196802	2.34397772	9.22421392	1.87212496	1.66506159	7.94026649	1.69407594	2.50243789	9.36728063	-2.57993719	-0.38646916	9.61271645	-0.24066812	-1.78212344	10.18801748	-4.63627959	8.83657177	5.49275130	1.07187501	10.82983785
3507	35.06000000	8.83226831	0.29075415	5.58427990	8.96821756	-0.77857431	2.42075072	9.87805928	2.16267769	1.51310333	7.84969571	1.54245766	2.50407416	9.27333920	-2.55223677	-0.44831557	9.51584253	0.17625100	-1.82203417	10.42940173	-4.38092270	8.27929764	5.58828039	1.04259715	10.79969583
3508	35.07000000	8.82218927	0.27544439	5.65543574	8.94052840	-0.89163245	2.48688046	10.36944854	2.93539834	1.34913698	7.91415747	1.35625042	2.39343223	9.23976657	-2.60282802	-0.51272010	9.49215610	0.61166278	-1.90107296	11.02086090	-3.95919332	8.20979935	5.59885514	1.02672238	10.78391203
3509	35.08000000	8.75288998	0.23601740	5.71392974	8.91528420	-0.88651799	2.51536126	10.69394818	3.91581106	1.18816519	8.06312531	1.08858228	2.17910389	9.28117811	-2.61442164	-0.59003057	9.53031535	0.98994721	-1.97127705	12.01430869	-3.46521612	8.49140887	5.53126456	1.03673299	10.78562317
3510	35.09000000	8.66843263	0.21217487	5.75594365	8.90630765	-0.80027000	2.51164414	10.82966919	4.79559206	0.98845096	8.18983369	0.66698948	1.87725782	9.36410222	-2.45088291	-0.69906526	9.47078079	1.26001189	-1.90638312	13.13956038	-2.98750411	8.63510045	5.47132043	1.05048745	10.79165405
3511	35.10000000	8.60747682	0.22897062	5.77764617	8.92485715	-0.66937464	2.48299804	10.76996337	5.39962009	0.71787385	8.22340060	0.04944851	1.51609514	9.46497047	-2.07585155	-0.84387070	9.24498978	1.38659723	-1.65015912	14.16062985	-2.52904944	8.32462447	5.46859702	1.05612439	10.79488314
3512	35.11000000	8.59027622	0.26543462	5.77498663	8.97681990	-0.52701944	2.43961267	10.55480345	5.95116183	0.37722521	8.20233911	-0.71365732	1.15899127	9.59331644	-1.75087966	-0.98395289	9.06603782	1.37961492	-1.36045020	14.96776919	-1.83915469	7.78405465	5.45895170	1.07497556	10.80742364
3513	35.12000000	8.63203715	0.29366711	5.74492292	9.06498241	-0.40516042	2.39121677	10.23148041	6.72374240	-0.02296301	8.18276317	-1.55367498	0.86839769	9.76048063	-1.77111609	-1.07124964	9.17796796	1.26018073	-1.22496503	15.48427092	-0.65595034	7.31557737	5.36473868	1.13090833	10.84360688
3514	35.13000000	8.72336076	0.30940048	5.70011110	9.16059459	-0.32645216	2.33256056	9.82781441	7.64079309	-0.41745830	8.18151504	-2.38421876	0.59563402	9.91326634	-2.11026603	-1.06767371	9.50870500	1.09209421	-1.28603108	15.77858254	0.74778813	6.89541331	5.22085392	1.19390370	10.89774167
3515	35.14000000	8.83591801	0.32655644	5.66528635	9.21064846	-0.30637581	2.24687337	9.35667235	8.35627877	-0.69894629	8.18521566	-3.10526215	0.20654246	9.94884576	-2.49460792	-0.94284987	9.74291739	0.97198788	-1.47405014	16.03084003	1.68793092	6.24887316	5.14878978	1.19249030	10.94872670
3516	35.15000000	8.95540430	0.35586581	5.65841472	9.18676100	-0.34264403	2.12976610	8.87752049	8.56572423	-0.79459273	8.19314386	-3.62942505	-0.33956967	9.82913046	-2.67226594	-0.71071547	9.68121694	0.96408526	-1.70200735	16.35489373	1.75696488	5.12003381	5.22124281	1.09327575	10.97928075
